<?xml version="1.0" encoding="UTF-8" standalone="no"?>
<svg
   xmlns:dc="http://purl.org/dc/elements/1.1/"
   xmlns:cc="http://creativecommons.org/ns#"
   xmlns:rdf="http://www.w3.org/1999/02/22-rdf-syntax-ns#"
   xmlns:svg="http://www.w3.org/2000/svg"
   xmlns="http://www.w3.org/2000/svg"
   viewBox="0 0 1600 800"
   height="800"
   width="1600"
   xml:space="preserve"
   id="svg2"
   version="1.1"><metadata
     id="metadata8"><rdf:RDF><cc:Work
         rdf:about=""><dc:format>image/svg+xml</dc:format><dc:type
           rdf:resource="http://purl.org/dc/dcmitype/StillImage" /></cc:Work></rdf:RDF></metadata><defs
     id="defs6" /><g
     transform="matrix(1.3333333,0,0,-1.3333333,0,800)"
     id="g10"><g
       transform="scale(0.1)"
       id="g12"><path
         id="path14"
         style="fill:#000000;fill-opacity:1;fill-rule:nonzero;stroke:none"
         d="M 1532.86,3168.76 H 944.469 V 1786.77 h 381.591 v 381.69 h 206.8 c 293.75,0 512.01,211.18 512.01,500.99 0,289.8 -218.26,499.31 -512.01,499.31 z m -45.65,-667.86 h -161.15 v 335.39 h 161.15 c 100.22,0 166.28,-69.45 166.28,-167.69 0,-98.22 -66.06,-167.7 -166.28,-167.7 z m 831.03,-714.13 h 367.21 v 1451.09 h -367.21 z m 1577.74,1067.25 -37.57,-82.45 c -88.03,72.64 -200.19,114.57 -325.75,114.57 -325.99,0 -559.02,-235 -559.02,-565.17 0,-331.32 233.03,-569.14 559.02,-569.14 123.82,0 234.38,40.75 321.68,111.46 l 31.45,-75.39 h 283.88 V 2854 Z m -314.22,-777.05 c -137.55,0 -238.65,103.92 -238.65,243.15 0,138.38 100.27,242.3 238.65,242.3 137.54,0 238.65,-103.92 238.65,-242.3 0,-139.23 -101.11,-243.15 -238.65,-243.15 z m 1581.41,807.43 c -137.86,0 -256.22,-53.01 -335.6,-141.45 l -50.44,109.93 H 4519.51 V 1786.77 h 367.21 v 569.3 c 0,135.69 65.88,215.67 180.39,215.67 92.41,0 139.02,-61.56 139.02,-185.64 v -599.33 h 367.22 v 650.07 c 0,271.62 -162.6,447.56 -410.18,447.56 z m 1318.32,-776 c -77.47,0 -123.55,46.06 -123.55,122.4 v 339.28 h 258.57 v 282.8 h -267.83 v 311.69 h -75.43 l -477.66,-508.65 v -85.84 h 195.14 v -402.27 c 0,-236.92 143.29,-381.04 379.06,-381.04 h 252.64 v 321.63 z m 417.2,-321.63 h 356.22 v 341.14 h -356.22 z m 1791.26,543.16 c 0,312.71 -237.93,557.87 -581.58,557.87 -334.61,0 -579.07,-240.33 -579.07,-567.17 0,-325.69 246.43,-568.82 579.07,-568.82 267.48,0 483.15,152.02 558.17,395.32 h -365.42 c -35.3,-62.4 -106.96,-99.97 -192.75,-99.97 -115.94,0 -193.61,63.23 -217.64,185.52 h 791.62 c 4.78,32.97 7.58,65.09 7.58,97.21 z m -581.59,270.14 c 110.81,0 187.61,-57.49 219.83,-164.04 h -430.98 c 29.71,105.9 104.12,164.04 211.15,164.04 z M 9537.62,2108.4 c -77.47,0 -123.55,46.06 -123.55,122.4 v 339.28 h 258.56 v 282.8 h -267.82 v 311.69 h -75.44 l -477.65,-508.65 v -85.84 h 195.13 v -402.27 c 0,-236.92 143.3,-381.04 379.06,-381.04 h 252.65 V 2108.4 Z M 10486,1751.83 c 300.2,0 528,195.09 569.5,484.6 h -360.8 c -30.3,-95.18 -110.2,-155.53 -208.7,-155.53 -127.9,0 -220.9,100.33 -220.9,239.24 0,138.91 91.9,236.97 220.9,236.97 95.7,0 177,-56.42 207.9,-143.41 h 357.7 c -40.1,283.58 -264.8,472.46 -564.5,472.46 -344.1,0 -589.78,-235 -589.78,-564.88 0,-329.88 246.78,-569.41 588.68,-569.41 v -0.04" /><path
         id="path16"
         style="fill:#000000;fill-opacity:1;fill-rule:nonzero;stroke:none"
         d="M 1243.97,1045.98 H 944.469 v -90.621 h 99.221 V 680.762 h 101.07 v 274.597 h 99.21 z m 223.3,-278.082 v 54.782 h 119.96 v 82.379 h -119.96 v 53.929 h 133.53 v 86.982 H 1367.15 V 680.832 h 238.06 v 87.066 z m 443.71,-96.378 c 97.29,0 171.87,65.152 185.76,161.171 h -102.92 c -10.23,-40.589 -42.09,-67 -82.62,-67 -51.72,0 -89.65,40.981 -89.65,97.321 0,56.558 37.93,98.136 89.65,98.136 38.44,0 70,-24.316 82.54,-61.769 h 101.95 c -14.85,92.613 -88.99,155.791 -184.71,155.791 -111.16,0 -194.13,-82.299 -194.13,-192.158 0,-109.25 82.97,-191.5 194.13,-191.5 z m 540.43,374.42 V 854.352 l -139.95,191.588 h -88.07 V 680.762 h 97.51 V 878.93 l 144.8,-198.168 h 83.22 v 365.178 z m 428.7,-374.42 c 117.14,0 200.57,79.871 200.57,191.82 0,111.961 -83.43,191.83 -200.57,191.83 -117.43,0 -201.17,-80.17 -201.17,-191.83 0,-111.649 83.74,-191.828 201.17,-191.828 z m 0,93.562 c -55.61,0 -96.47,41.379 -96.47,98.258 0,56.879 40.86,98.25 96.47,98.25 55.61,0 95.87,-41.078 95.87,-98.258 0,-57.172 -40.26,-98.25 -95.87,-98.25 z m 432.17,7.809 V 1045.94 H 3210.6 V 680.699 h 231.67 v 92.192 z M 3737.4,671.52 c 117.13,0 200.57,79.871 200.57,191.82 0,111.961 -83.44,191.83 -200.57,191.83 -117.44,0 -201.17,-80.17 -201.17,-191.83 0,-111.649 83.73,-191.828 201.17,-191.828 z m 0,93.562 c -55.61,0 -96.47,41.379 -96.47,98.258 0,56.879 40.86,98.25 96.47,98.25 55.61,0 95.86,-41.078 95.86,-98.258 0,-57.172 -40.25,-98.25 -95.86,-98.25 z m 498.14,110.84 V 812.48 h 90.71 c -11.49,-28.167 -44.42,-46.75 -82.82,-46.75 -55.31,0 -91.58,39.559 -91.58,97.321 0,58.359 36.87,97.918 91.58,97.918 37.25,0 69.94,-19.778 83.15,-50.547 h 105.45 c -15.45,84.879 -93.76,144.788 -189.5,144.788 -112.51,0 -193.62,-81.03 -193.62,-192.147 0,-111.133 82.62,-191.563 194.52,-191.563 114.38,0 192.4,84.91 192.4,204.43 z m 329.61,-195.16 h 101.68 v 365.178 h -101.68 z m 492.92,0 h 110.71 l -146.5,365.178 H 4924 L 4780.64,680.762 h 107.75 l 20.21,59.476 h 129.36 z m -44.64,138.199 h -80.34 l 39.99,113.078 z M 5635.98,671.52 c 97.29,0 171.87,65.152 185.76,161.171 h -102.92 c -10.23,-40.589 -42.09,-67 -82.62,-67 -51.72,0 -89.65,40.981 -89.65,97.321 0,56.558 37.93,98.136 89.65,98.136 38.44,0 70,-24.316 82.54,-61.769 h 101.95 c -14.85,92.613 -88.99,155.791 -184.71,155.791 -111.16,0 -194.13,-82.299 -194.13,-192.158 0,-109.25 82.97,-191.5 194.13,-191.5 z m 494.31,0 c 117.13,0 200.57,79.871 200.57,191.82 0,111.961 -83.44,191.83 -200.57,191.83 -117.44,0 -201.17,-80.17 -201.17,-191.83 0,-111.649 83.73,-191.828 201.17,-191.828 z m 0,93.562 c -55.62,0 -96.47,41.379 -96.47,98.258 0,56.879 40.85,98.25 96.47,98.25 55.61,0 95.86,-41.078 95.86,-98.258 0,-57.172 -40.25,-98.25 -95.86,-98.25 z m 789.55,-84.32 -54.73,365.178 h -100.48 l -86.58,-198.71 -86.01,198.71 h -100.49 l -55.24,-365.178 h 101.97 l 28.1,210.218 96.83,-210.75 h 29.73 l 96.87,210.872 28.5,-210.34 z m 283.34,365.078 H 7047.79 V 680.762 h 100.64 V 781.98 h 54.75 c 77.6,0 135.18,55.649 135.18,132.149 0,76.512 -57.58,131.711 -135.18,131.711 z m -12.09,-176.258 h -42.66 v 88.66 h 42.66 c 26.53,0 44.02,-18.363 44.02,-44.332 0,-25.969 -17.49,-44.328 -44.02,-44.328 z m 483.72,-188.82 h 110.72 l -146.5,365.178 h -98.28 L 7397.39,680.762 h 107.74 l 20.21,59.476 h 129.37 z m -44.64,138.199 h -80.34 l 39.99,113.078 z m 465.09,-138.199 h 112.31 l -72.52,132.66 c 36.08,21.527 57.97,58.129 57.97,103.168 0,76.5 -57.08,129.25 -135.66,129.25 H 7899.34 V 680.762 h 100.63 v 111.66 h 36.3 z m -95.29,275.918 h 45.73 c 27.99,0 44.1,-16.809 44.1,-39.782 0,-22.976 -16.11,-40.019 -44.1,-40.019 h -45.73 z m 596.44,89.3 H 8296.9 v -90.621 h 99.22 V 680.762 h 101.07 v 274.597 h 99.22 z m 123.17,-365.218 h 101.68 v 365.178 h -101.68 z m 352.66,92.129 V 1045.94 H 8970.55 V 680.699 h 231.67 v 92.192 z m 464.5,273.049 V 914.41 H 9427 v 131.53 H 9325.41 V 680.762 H 9427 v 140.386 h 109.74 V 680.762 h 101.58 v 365.178 z m 492.36,-365.178 h 110.7 l -146.5,365.178 h -98.28 L 9751.66,680.762 h 107.74 l 20.22,59.476 H 10009 Z m -44.66,138.199 h -80.33 l 39.99,113.078 z m 416.86,227.029 h -147.6 V 680.699 h 147.6 c 110,0 188.2,76.371 188.2,182.949 0,106.711 -77.9,182.342 -188.2,182.342 z m -4.7,-273.099 h -41.9 v 180.91 h 41.9 c 53.9,0 89.8,-35.981 89.8,-90.153 0,-53.878 -35.9,-90.757 -89.8,-90.757 z m 548.2,-92.129 h 110.7 L 10909,1045.94 h -98.3 l -143.3,-365.178 h 107.7 l 20.2,59.476 h 129.4 z m -44.6,138.199 h -80.4 l 40,113.078 z" /><path
         id="path18"
         style="fill:#000000;fill-opacity:1;fill-rule:nonzero;stroke:none"
         d="m 4497.34,5328.51 c -254.55,-113.39 -486.87,-466.5 -550.41,-754.21 -60.16,-272.47 -23.78,-579.9 138.97,-789.75 L 4404.42,4771 4186.29,3668.04 c 236.86,125.65 423.25,481.49 483.42,754 63.5,287.63 11.71,700.7 -172.37,906.47" /><path
         id="path20"
         style="fill:#000000;fill-opacity:1;fill-rule:nonzero;stroke:none"
         d="m 2917.74,3981.2 c 9.69,-210.9 223.25,-466.25 415.99,-593.7 182.54,-120.7 418.63,-183.96 619.51,-130.49 l -617.37,491.89 731.75,-455.17 c -23.86,202.04 -231.1,435.2 -413.67,555.94 -192.74,127.41 -532.09,201.1 -736.21,131.53" /><path
         id="path22"
         style="fill:#000000;fill-opacity:1;fill-rule:nonzero;stroke:none"
         d="m 6262.78,4167.03 c -323.75,86.64 -659.39,166.11 -974.95,35.76 -295.15,-129.1 -537.34,-338.45 -735.73,-587.11 397.16,25.25 1199.63,365.52 1199.63,365.52 -139.38,-232.3 -1067.86,-467.54 -1311.4,-512.22 251.25,-205.66 708.45,-207.09 1079.1,-45.29 391.91,161.59 713.54,421.42 743.35,743.34" /><path
         id="path24"
         style="fill:#000000;fill-opacity:1;fill-rule:nonzero;stroke:none"
         d="m 5300.66,4489.37 c 200.27,0 362.62,162.36 362.62,362.62 0,200.27 -162.35,362.62 -362.62,362.62 -200.27,0 -362.62,-162.35 -362.62,-362.62 0,-200.26 162.35,-362.62 362.62,-362.62" /></g></g></svg>