<?xml version="1.0" encoding="UTF-8" standalone="no"?>
<svg
   xmlns:dc="http://purl.org/dc/elements/1.1/"
   xmlns:cc="http://creativecommons.org/ns#"
   xmlns:rdf="http://www.w3.org/1999/02/22-rdf-syntax-ns#"
   xmlns:svg="http://www.w3.org/2000/svg"
   xmlns="http://www.w3.org/2000/svg"
   viewBox="0 0 344.98666 133.2"
   height="133.2"
   width="344.98666"
   xml:space="preserve"
   id="svg2"
   version="1.1"><metadata
     id="metadata8"><rdf:RDF><cc:Work
         rdf:about=""><dc:format>image/svg+xml</dc:format><dc:type
           rdf:resource="http://purl.org/dc/dcmitype/StillImage" /></cc:Work></rdf:RDF></metadata><defs
     id="defs6" /><g
     transform="matrix(1.3333333,0,0,-1.3333333,0,133.2)"
     id="g10"><g
       transform="scale(0.1)"
       id="g12"><path
         id="path14"
         style="fill:#a29d70;fill-opacity:1;fill-rule:nonzero;stroke:none"
         d="m 200.75,284.066 c 78.879,0 135.887,38.512 135.887,112.7 0,77.57 -65.375,94.273 -115.371,107.172 -31.985,8.039 -57.586,14.421 -57.586,33.714 0,15.856 16.011,23.075 32.687,23.075 19.395,0 35.41,-10.075 35.41,-31.555 h 93.852 c 0,69.109 -46.703,110.918 -128.141,110.918 -80.097,0 -129.2458,-38.324 -129.2458,-105.219 0,-77.332 62.6758,-92.375 111.7778,-104.578 32.332,-7.836 58.773,-14.016 58.773,-35.32 0,-18.559 -18.723,-28.989 -38.32,-28.989 -21.336,0 -40.059,11.813 -40.059,36.075 H 63.875 c 0,-74.039 53.734,-117.993 136.875,-117.993 z m 346.297,87.364 c -19.043,0 -30.371,11.324 -30.371,30.086 v 83.394 h 63.554 v 69.508 h -65.828 v 76.613 H 495.859 L 378.453,506.008 V 484.91 h 47.965 v -98.879 c 0,-58.23 35.219,-93.656 93.172,-93.656 h 62.098 v 79.055 z m 315.113,183.269 -9.234,-20.261 c -21.637,17.851 -49.207,28.16 -80.067,28.16 -80.129,0 -137.406,-57.762 -137.406,-138.918 0,-81.438 57.277,-139.895 137.406,-139.895 30.434,0 57.61,10.02 79.067,27.399 l 7.73,-18.532 h 69.778 V 554.695 Z M 784.926,363.703 c -33.809,0 -58.66,25.547 -58.66,59.766 0,34.015 24.648,59.558 58.66,59.558 33.808,0 58.66,-25.543 58.66,-59.558 0,-34.219 -24.852,-59.766 -58.66,-59.766 z m 227.154,-71.328 h 87.56 v 83.852 h -87.56 z m 269.53,85.699 v 253.989 h -94.82 V 292.375 h 215.71 v 85.699 z m 309.02,-94.289 c 77.4,0 128.95,47.762 128.95,121.086 v 149.547 h -90.26 V 408.797 c 0,-27.387 -14.58,-43.926 -38.69,-43.926 -24.12,0 -38.99,16.266 -38.99,43.926 v 145.621 h -90.26 V 404.871 c 0,-73.324 51.84,-121.086 129.25,-121.086 z m 212.1,316.363 h 88.87 v 76.598 m -89.56,-384.363 h 90.26 v 262.043 h -90.26 z m 283.92,80.234 98.97,167.078 v 14.723 H 1968.6 v -79.684 h 91.48 L 1959.7,305.77 v -13.395 h 226.26 v 80.242 z m 379.5,182.082 -9.23,-20.261 c -21.64,17.851 -49.21,28.16 -80.07,28.16 -80.13,0 -137.4,-57.762 -137.4,-138.918 0,-81.438 57.27,-139.895 137.4,-139.895 30.44,0 57.61,10.02 79.07,27.399 l 7.73,-18.532 h 69.78 v 262.043 z m -77.23,-190.996 c -33.81,0 -58.66,25.547 -58.66,59.766 0,34.015 24.65,59.558 58.66,59.558 33.81,0 58.66,-25.543 58.66,-59.558 0,-34.219 -24.85,-59.766 -58.66,-59.766" /><path
         id="path16"
         style="fill:#a29d70;fill-opacity:1;fill-rule:nonzero;stroke:none"
         d="m 1531.94,126.754 h -42.82 V 20.8164 h 42.82 c 31.89,0 54.59,22.1484 54.59,53.0547 0,30.9489 -22.61,52.8829 -54.59,52.8829 z m -1.37,-79.1993 h -12.14 v 52.4613 h 12.14 c 15.63,0 26.04,-10.434 26.04,-26.1449 0,-15.6211 -10.41,-26.3164 -26.04,-26.3164 z m 123,-1.4492 v 15.8867 h 34.79 v 23.8906 h -34.79 v 15.6402 h 38.73 v 25.223 h -67.76 V 20.8516 h 69.04 V 46.1055 Z M 1770.54,18.25 c 24.58,0 42.36,12.0117 42.36,35.125 0,24.1445 -20.39,29.3438 -35.98,33.3594 -10.01,2.5039 -18.04,4.4883 -18.04,10.4922 0,4.9374 5.02,7.1834 10.25,7.1834 6.09,0 11.12,-3.137 11.12,-9.8202 h 29.18 c 0,21.5432 -14.52,34.5902 -39.94,34.5902 -25.05,0 -40.38,-11.961 -40.38,-32.8167 0,-24.0703 19.55,-28.7539 34.89,-32.5508 10.15,-2.4414 18.38,-4.3633 18.38,-10.9961 0,-5.7773 -5.83,-9.0195 -11.93,-9.0195 -6.64,0 -12.47,3.6758 -12.47,11.2265 h -30.09 c 0,-23.0664 16.75,-36.7734 42.65,-36.7734 z m 123.2,108.504 h -42.82 V 20.8164 h 42.82 c 31.89,0 54.59,22.1484 54.59,53.0547 0,30.9489 -22.61,52.8829 -54.59,52.8829 z m -1.37,-79.1993 h -12.13 v 52.4613 h 12.13 c 15.63,0 26.04,-10.434 26.04,-26.1449 0,-15.6211 -10.41,-26.3164 -26.04,-26.3164 z m 123.01,-1.4492 v 15.8867 h 34.79 v 23.8906 h -34.79 v 15.6402 h 38.72 v 25.223 h -67.76 V 20.8516 h 69.04 V 46.1055 Z M 2144.53,121.43 V 98.625 h 14.92 V 20.832 h 27.07 V 121.43 Z m 118.25,2.586 c -23.64,0 -39.91,-15.125 -39.91,-37.2191 0,-19.5078 14.04,-32.9766 34.2,-32.9766 2.28,0 4.49,0.1563 6.66,0.4883 -6.66,-11.1094 -13.44,-22.4023 -20.06,-33.4766 h 29.09 l 18.6,31.4102 c 8.36,14.1016 11.51,24.3203 11.51,34.6875 0,21.9843 -16.32,37.0863 -40.09,37.0863 z m 0.09,-51.7543 c -8.69,0 -14.78,5.9102 -14.78,14.5352 0,8.5429 6.09,14.3871 14.78,14.3871 8.6,0 14.77,-5.8442 14.77,-14.3871 0,-8.625 -6.17,-14.5352 -14.77,-14.5352 z m 110.09,14.7774 h -9.36 l 1.27,11.4843 h 38.9 v 22.9176 h -59.66 l -5.62,-52.4488 2.57,-3.3242 h 31.31 c 7.38,0 12.45,-4.9336 12.45,-12.1641 0,-6.8164 -4.83,-11.8828 -11.45,-11.8828 -6.76,0 -11.57,4.8906 -11.57,11.7266 h -25.81 c 0,-20.418 15.46,-34.8438 37.38,-34.8438 21.95,0 37.62,14.5586 37.62,35 0,19.7344 -15.49,33.5313 -38.03,33.5313 z M 2488.71,18.293 c 26.77,0 44.03,20.6328 44.03,52.7695 0,32.2225 -17.18,52.7655 -44.03,52.7655 -26.85,0 -44.02,-20.543 -44.02,-52.7655 0,-32.1367 17.26,-52.7695 44.02,-52.7695 z m 0,23.8906 c -10.63,0 -16.5,10.3359 -16.5,28.8789 0,18.543 5.87,28.8789 16.5,28.8789 10.54,0 16.5,-10.4258 16.5,-28.9648 0,-18.543 -5.87,-28.793 -16.5,-28.793" /><path
         id="path18"
         style="fill:#8cc740;fill-opacity:1;fill-rule:nonzero;stroke:none"
         d="m 134.477,109.82 v 27.551 H 63.875 V 26.5234 H 94.7188 V 65.3477 H 130.359 V 92.0898 H 94.7188 V 109.82 Z M 240.309,26.5234 h 33.617 L 229.441,137.41 H 199.598 L 156.066,26.5234 h 32.719 l 6.137,18.0625 h 39.277 z M 226.75,68.4883 H 202.359 L 214.5,102.824 Z M 346.352,54.9727 387.203,130.52 v 6.906 h -83.16 v -28.469 h 38.375 L 301.352,32.8633 v -6.3594 h 87.753 v 28.4688 z m 111.832,-1.9883 v 16.6328 h 36.425 v 25.0156 h -36.425 v 16.3752 h 40.546 v 26.41 H 427.785 V 26.5469 H 500.07 V 52.9844 Z M 610.617,137.41 V 79.2344 L 568.121,137.41 H 541.379 V 26.5234 h 29.609 v 60.1758 l 43.969,-60.1758 h 25.266 V 137.41 Z m 119.785,0.016 H 685.57 V 26.5078 h 44.832 c 33.387,0 57.153,23.1875 57.153,55.5508 0,32.4024 -23.672,55.3674 -57.153,55.3674 z M 728.969,54.5 h -12.711 v 54.93 h 12.711 c 16.359,0 27.261,-10.9222 27.261,-27.3714 C 756.23,65.6992 745.328,54.5 728.969,54.5 Z M 895.434,26.5234 h 33.617 L 884.566,137.41 H 854.727 L 811.195,26.5234 h 32.715 l 6.141,18.0625 h 39.277 z m -13.555,41.9649 h -24.395 l 12.145,34.3357 z" /><path
         id="path20"
         style="fill:#8cc7d7;fill-opacity:1;fill-rule:nonzero;stroke:none"
         d="M 913.844,971.531 C 872.18,952.973 834.152,895.176 823.754,848.086 813.906,803.488 819.859,753.168 846.5,718.82 L 898.633,880.281 862.93,699.75 c 38.769,20.566 69.281,78.809 79.125,123.414 10.394,47.078 1.918,114.688 -28.211,148.367" /><path
         id="path22"
         style="fill:#ed6771;fill-opacity:1;fill-rule:nonzero;stroke:none"
         d="m 655.297,751.008 c 1.586,-34.52 36.539,-76.317 68.086,-97.176 29.879,-19.758 68.523,-30.113 101.402,-21.359 l -101.051,80.511 119.774,-74.5 c -3.906,33.067 -37.828,71.231 -67.711,90.996 -31.547,20.852 -87.094,32.915 -120.5,21.528" /><path
         id="path24"
         style="fill:#8cc740;fill-opacity:1;fill-rule:nonzero;stroke:none"
         d="m 1202.81,781.426 c -52.99,14.179 -107.93,27.187 -159.58,5.851 -48.312,-21.132 -87.949,-55.398 -120.425,-96.097 65.008,4.133 196.355,59.828 196.355,59.828 -22.81,-38.024 -174.785,-76.528 -214.648,-83.84 41.125,-33.664 115.958,-33.898 176.628,-7.414 64.15,26.449 116.79,68.98 121.67,121.672" /><path
         id="path26"
         style="fill:#ffc200;fill-opacity:1;fill-rule:nonzero;stroke:none"
         d="m 1045.33,836.566 c 32.78,0 59.35,26.883 59.35,60.043 0,33.161 -26.57,60.043 -59.35,60.043 -32.78,0 -59.353,-26.882 -59.353,-60.043 0,-33.16 26.573,-60.043 59.353,-60.043" /></g></g></svg>